<?xml version="1.0" standalone="no"?>
<!DOCTYPE svg PUBLIC "-//W3C//DTD SVG 20010904//EN"
 "http://www.w3.org/TR/2001/REC-SVG-20010904/DTD/svg10.dtd">
<svg version="1.0" xmlns="http://www.w3.org/2000/svg"
 width="100.000000pt" height="100.000000pt" viewBox="0 0 100.000000 100.000000"
 preserveAspectRatio="xMidYMid meet">
<metadata>
Created by potrace 1.14, written by Peter Selinger 2001-2017
</metadata>
<g transform="translate(0.000000,100.000000) scale(0.100000,-0.100000)"
fill="#000000" stroke="none">
<path d="M414 918 c-3 -4 -18 -8 -33 -8 -16 0 -34 -7 -41 -15 -7 -9 -19 -14
-26 -11 -7 2 -20 -4 -30 -15 -9 -10 -23 -19 -30 -19 -8 0 -21 -11 -30 -25 -9
-14 -23 -25 -30 -25 -8 0 -14 -7 -14 -15 0 -8 -9 -20 -20 -27 -11 -7 -20 -20
-20 -29 0 -9 -9 -24 -20 -34 -11 -10 -19 -23 -17 -29 3 -6 0 -20 -6 -31 -13
-25 -18 -63 -17 -135 0 -30 1 -67 1 -82 0 -16 4 -28 9 -28 6 0 10 -14 10 -30
0 -17 6 -33 14 -36 8 -3 17 -17 21 -32 3 -14 15 -32 26 -40 10 -7 19 -20 19
-28 0 -8 5 -14 10 -14 6 0 20 -11 32 -25 12 -14 28 -25 35 -25 7 0 18 -8 24
-19 7 -10 20 -16 29 -14 9 2 22 -3 29 -11 8 -9 26 -16 42 -16 15 0 31 -5 34
-11 4 -6 19 -7 35 -4 16 3 31 2 35 -4 4 -8 12 -8 25 -1 11 6 30 8 44 4 13 -3
27 -1 30 5 4 6 20 11 35 11 16 0 34 7 41 15 7 9 19 14 27 11 7 -3 19 3 25 14
7 11 20 20 29 20 9 0 24 11 33 25 9 14 23 25 31 25 8 0 15 7 15 15 0 8 9 23
20 32 11 10 20 23 20 29 0 6 9 21 20 34 11 12 17 26 14 31 -3 5 1 18 9 30 8
11 13 29 10 40 -3 10 0 26 7 34 8 10 9 19 2 32 -7 11 -7 24 0 36 6 12 6 23 -2
32 -6 8 -10 22 -9 32 2 10 -3 28 -9 41 -7 12 -11 26 -8 31 3 5 -3 19 -14 31
-11 13 -20 28 -20 34 0 6 -9 19 -20 29 -11 9 -20 24 -20 32 0 8 -7 15 -15 15
-8 0 -22 11 -31 25 -9 14 -24 25 -33 25 -9 0 -22 9 -29 20 -6 11 -18 17 -25
14 -8 -3 -20 2 -27 11 -7 8 -28 15 -46 15 -19 0 -34 4 -34 8 0 5 -36 8 -81 8
-44 0 -82 -3 -85 -8z"/>
</g>
</svg>
